<svg data-v-423bf9ae="" xmlns="http://www.w3.org/2000/svg" viewBox="0 0 455.9401826123299 60" class="font"><!----><!----><!----><g data-v-423bf9ae="" id="8e817ebb-9e90-4963-a66f-5fa520e64c28" fill="black" transform="matrix(4.273504285115473,0,0,4.273504285115473,0.000001467272539912301,0.12820534226413827)"><path d="M10.98 0.11L10.04 0.25Q9.93 0.84 9.86 1.73Q9.79 2.62 9.73 3.68Q9.67 4.75 9.65 5.90Q9.62 7.06 9.60 8.18L9.60 8.18Q9.56 10.79 9.58 13.76L9.58 13.76Q8.47 12.29 7.43 10.77Q6.38 9.25 5.45 7.82Q4.51 6.38 3.69 5.10Q2.87 3.82 2.23 2.84L2.23 2.84Q2.25 3.70 2.32 4.80Q2.39 5.91 2.47 7.06Q2.55 8.22 2.65 9.35Q2.74 10.49 2.85 11.42Q2.95 12.35 3.07 12.98Q3.18 13.61 3.28 13.76L3.28 13.76L4.19 13.90L4.23 14Q3.98 13.97 3.68 13.93L3.68 13.93Q3.43 13.90 3.09 13.88Q2.76 13.86 2.37 13.86L2.37 13.86Q1.92 13.86 1.58 13.88Q1.25 13.90 1.01 13.93L1.01 13.93Q0.74 13.97 0.55 14L0.55 14L0.55 13.86L1.27 13.76Q1.40 13.57 1.49 12.87Q1.58 12.17 1.65 11.16Q1.71 10.15 1.74 8.93Q1.78 7.70 1.79 6.46Q1.79 5.22 1.77 4.06Q1.75 2.90 1.72 2.02L1.72 2.02Q1.19 1.26 0.85 0.82Q0.50 0.38 0.36 0.38L0.36 0.38L0.06 0.38L0 0.25Q0.49 0.24 0.98 0.20L0.98 0.20Q1.40 0.17 1.88 0.12Q2.35 0.07 2.73-0.03L2.73-0.03Q2.95 0.55 3.35 1.29Q3.75 2.04 4.24 2.88Q4.72 3.71 5.26 4.58Q5.81 5.46 6.34 6.29L6.34 6.29Q7.59 8.23 9.03 10.32L9.03 10.32Q9.02 8.04 8.93 6.03L8.93 6.03Q8.89 5.18 8.83 4.31Q8.78 3.44 8.70 2.67Q8.62 1.89 8.51 1.26Q8.40 0.63 8.26 0.25L8.26 0.25L7.18 0.11L7.14-0.03Q7.41 0.01 7.70 0.04L7.70 0.04Q7.95 0.07 8.27 0.09Q8.60 0.11 8.95 0.11L8.95 0.11Q9.34 0.11 9.70 0.09Q10.05 0.07 10.33 0.04L10.33 0.04Q10.65 0.01 10.93-0.03L10.93-0.03L10.98 0.11ZM18.55 9.52L18.55 9.52Q18.66 9.79 18.87 10.30Q19.08 10.82 19.31 11.35Q19.54 11.89 19.77 12.29Q19.99 12.70 20.15 12.73L20.15 12.73Q19.73 12.96 19.27 13.30Q18.82 13.64 18.48 14L18.48 14Q18.41 13.69 18.23 13.14Q18.05 12.59 17.74 11.93L17.74 11.93Q17.47 12.19 17.07 12.55Q16.66 12.91 16.20 13.23Q15.74 13.55 15.24 13.78Q14.74 14 14.29 14L14.29 14Q13.97 14 13.63 13.91Q13.29 13.82 13.01 13.64Q12.73 13.47 12.55 13.22Q12.38 12.96 12.38 12.64L12.38 12.64Q12.38 12.25 12.78 11.80Q13.19 11.35 13.79 10.91Q14.39 10.47 15.09 10.05Q15.79 9.63 16.38 9.27L16.38 9.27Q15.95 8.72 15.56 8.48Q15.18 8.23 14.71 8.23L14.71 8.23Q14.52 8.23 14.20 8.34Q13.89 8.46 13.59 8.60L13.59 8.60Q13.23 8.75 12.87 8.95L12.87 8.95Q13.65 8.41 14.38 7.98L14.38 7.98Q14.69 7.80 15.01 7.63Q15.33 7.46 15.63 7.32Q15.93 7.18 16.19 7.10Q16.45 7.01 16.63 7.01L16.63 7.01Q16.98 7.01 17.28 7.31Q17.58 7.62 17.83 8.03Q18.07 8.44 18.25 8.86Q18.42 9.28 18.55 9.52ZM15.81 12.64L15.81 12.64Q16.14 12.64 16.45 12.54Q16.76 12.45 16.99 12.26Q17.22 12.08 17.36 11.83Q17.50 11.58 17.50 11.28L17.50 11.28Q17.39 11.10 17.26 10.88Q17.14 10.67 17.02 10.47L17.02 10.47Q16.91 10.22 16.79 9.99Q16.67 9.76 16.55 9.60L16.55 9.60Q16.24 9.72 15.80 9.92Q15.36 10.12 14.95 10.39Q14.55 10.67 14.26 10.99Q13.97 11.31 13.97 11.66L13.97 11.66Q13.97 11.86 14.12 12.03Q14.27 12.21 14.51 12.34Q14.76 12.47 15.09 12.56Q15.43 12.64 15.81 12.64ZM27.72 9.52L27.72 9.52Q27.83 9.79 28.04 10.30Q28.25 10.82 28.48 11.35Q28.71 11.89 28.94 12.29Q29.16 12.70 29.32 12.73L29.32 12.73Q28.90 12.96 28.44 13.30Q27.99 13.64 27.65 14L27.65 14Q27.58 13.69 27.40 13.14Q27.22 12.59 26.91 11.93L26.91 11.93Q26.64 12.19 26.24 12.55Q25.83 12.91 25.37 13.23Q24.91 13.55 24.41 13.78Q23.91 14 23.46 14L23.46 14Q23.14 14 22.80 13.91Q22.46 13.82 22.18 13.64Q21.90 13.47 21.72 13.22Q21.55 12.96 21.55 12.64L21.55 12.64Q21.55 12.25 21.95 11.80Q22.36 11.35 22.96 10.91Q23.56 10.47 24.26 10.05Q24.96 9.63 25.55 9.27L25.55 9.27Q25.12 8.72 24.73 8.48Q24.35 8.23 23.88 8.23L23.88 8.23Q23.69 8.23 23.37 8.34Q23.06 8.46 22.76 8.60L22.76 8.60Q22.40 8.75 22.04 8.95L22.04 8.95Q22.82 8.41 23.55 7.98L23.55 7.98Q23.86 7.80 24.18 7.63Q24.50 7.46 24.80 7.32Q25.10 7.18 25.36 7.10Q25.62 7.01 25.80 7.01L25.80 7.01Q26.15 7.01 26.45 7.31Q26.75 7.62 27.00 8.03Q27.24 8.44 27.42 8.86Q27.59 9.28 27.72 9.52ZM24.98 12.64L24.98 12.64Q25.31 12.64 25.62 12.54Q25.93 12.45 26.16 12.26Q26.39 12.08 26.53 11.83Q26.67 11.58 26.67 11.28L26.67 11.28Q26.56 11.10 26.43 10.88Q26.31 10.67 26.19 10.47L26.19 10.47Q26.08 10.22 25.96 9.99Q25.84 9.76 25.72 9.60L25.72 9.60Q25.41 9.72 24.97 9.92Q24.53 10.12 24.12 10.39Q23.72 10.67 23.43 10.99Q23.14 11.31 23.14 11.66L23.14 11.66Q23.14 11.86 23.29 12.03Q23.44 12.21 23.68 12.34Q23.93 12.47 24.26 12.56Q24.60 12.64 24.98 12.64ZM38.57 7.07L38.57 7.07Q38.79 7.07 39.09 7.15Q39.38 7.24 39.66 7.36Q39.93 7.49 40.15 7.64Q40.36 7.80 40.45 7.95L40.45 7.95Q40.24 8.60 39.84 9.31Q39.45 10.02 38.97 10.79Q38.49 11.55 37.95 12.35Q37.41 13.15 36.90 13.94L36.90 13.94Q36.48 13.34 36.17 12.76Q35.85 12.18 35.55 11.65L35.55 11.65Q35.34 11.89 35.06 12.15Q34.79 12.42 34.50 12.71Q34.20 13.01 33.91 13.34Q33.63 13.66 33.39 14.01L33.39 14.01Q33.25 13.68 32.96 13.12Q32.68 12.56 32.33 11.91Q31.98 11.26 31.60 10.58Q31.22 9.91 30.89 9.37Q30.56 8.82 30.32 8.47Q30.07 8.12 30.00 8.11L30.00 8.11L29.68 8.11Q29.62 8.11 29.79 8.02Q29.96 7.94 30.23 7.79Q30.49 7.64 30.77 7.44Q31.05 7.24 31.23 7L31.23 7Q31.32 7.21 31.45 7.47Q31.58 7.73 31.74 8.00Q31.89 8.27 32.05 8.55Q32.20 8.82 32.33 9.04L32.33 9.04Q32.44 8.92 32.69 8.65Q32.94 8.39 33.24 8.08Q33.54 7.77 33.87 7.48Q34.19 7.18 34.45 7L34.45 7Q34.51 7.18 34.64 7.43Q34.76 7.69 34.92 7.97Q35.07 8.25 35.24 8.53Q35.41 8.82 35.55 9.04L35.55 9.04Q35.76 8.82 36.11 8.48Q36.47 8.13 36.88 7.83Q37.30 7.52 37.74 7.29Q38.18 7.07 38.57 7.07ZM34.45 12.52L34.45 12.52Q34.82 12.15 35.32 11.41L35.32 11.41Q35.24 11.17 35 10.66Q34.76 10.15 34.48 9.63Q34.19 9.11 33.90 8.72Q33.61 8.33 33.43 8.33L33.43 8.33Q33.35 8.33 33.22 8.42Q33.10 8.51 32.96 8.64Q32.83 8.78 32.70 8.93Q32.58 9.07 32.48 9.20L32.48 9.20Q32.89 9.97 33.40 10.86Q33.92 11.75 34.45 12.52ZM37.45 12.36L37.45 12.36Q37.59 12.18 37.86 11.81Q38.12 11.44 38.39 10.98Q38.65 10.53 38.84 10.05Q39.03 9.58 39.03 9.20L39.03 9.20Q39.03 8.82 38.83 8.55Q38.63 8.27 38.35 8.11Q38.07 7.94 37.77 7.86Q37.48 7.78 37.30 7.78L37.30 7.78Q37.14 7.78 36.89 7.97Q36.64 8.16 36.38 8.41Q36.12 8.65 35.91 8.88Q35.70 9.11 35.64 9.20L35.64 9.20Q35.78 9.46 36.02 9.91Q36.25 10.36 36.51 10.84Q36.76 11.31 37.02 11.73Q37.27 12.15 37.45 12.36ZM43.40 5.24L43.40 5.24Q43.22 5.38 43.04 5.53L43.04 5.53Q42.88 5.67 42.69 5.85Q42.50 6.03 42.35 6.23L42.35 6.23Q42.20 5.98 42.03 5.80Q41.86 5.61 41.71 5.49L41.71 5.49Q41.54 5.33 41.37 5.24L41.37 5.24Q41.55 5.10 41.72 4.94L41.72 4.94Q41.87 4.80 42.04 4.62Q42.21 4.44 42.35 4.23L42.35 4.23Q42.50 4.47 42.69 4.65Q42.87 4.84 43.02 4.97L43.02 4.97Q43.20 5.12 43.40 5.24ZM41.15 8.12L41.15 8.12Q41.48 7.98 41.78 7.88Q42.08 7.77 42.36 7.65Q42.63 7.53 42.89 7.38Q43.15 7.24 43.40 7.01L43.40 7.01Q43.51 7.39 43.50 7.93Q43.48 8.47 43.44 9.06Q43.39 9.66 43.37 10.26Q43.36 10.86 43.48 11.35Q43.60 11.84 43.90 12.17Q44.20 12.50 44.80 12.56L44.80 12.56Q44.20 12.95 43.77 13.30Q43.34 13.65 42.92 14.01L42.92 14.01Q42.80 13.96 42.64 13.89Q42.49 13.82 42.35 13.69Q42.21 13.55 42.11 13.35Q42 13.15 41.99 12.82L41.99 12.82Q42 11.87 42.03 11.01Q42.06 10.15 42 9.50Q41.94 8.85 41.76 8.48Q41.57 8.11 41.15 8.12ZM52.01 9.09L52.01 9.09L51.41 10.14Q50.43 10.58 49.88 10.58L49.88 10.58Q49.32 10.58 48.75 10.25L48.75 10.25Q48.51 10.11 48.13 10.11L48.13 10.11Q47.17 10.11 46.55 10.65L46.55 10.65L47.19 9.53Q47.68 9.11 48.62 9.11L48.62 9.11Q49.03 9.11 49.25 9.24L49.25 9.24Q49.84 9.58 50.39 9.58L50.39 9.58Q50.95 9.58 52.01 9.09ZM58.83 13.64L58.83 13.64Q59.63 13.64 60.14 13.13Q60.66 12.63 60.96 11.73Q61.26 10.84 61.38 9.63Q61.50 8.41 61.50 6.99L61.50 6.99Q61.50 6.44 61.43 5.73Q61.35 5.03 61.19 4.29Q61.04 3.56 60.79 2.85Q60.54 2.14 60.18 1.59Q59.82 1.04 59.36 0.69Q58.90 0.35 58.31 0.35L58.31 0.35Q57.62 0.35 57.13 0.91Q56.63 1.47 56.30 2.40Q55.97 3.33 55.82 4.55Q55.66 5.77 55.66 7.07L55.66 7.07Q55.66 7.57 55.73 8.26Q55.79 8.95 55.94 9.67Q56.08 10.40 56.32 11.12Q56.56 11.83 56.91 12.39Q57.26 12.95 57.74 13.29Q58.21 13.64 58.83 13.64ZM53.76 7.34L53.76 7.34Q53.76 5.78 54.17 4.44Q54.57 3.09 55.24 2.11Q55.92 1.12 56.78 0.56Q57.65 0 58.58 0L58.58 0Q59.68 0 60.59 0.53Q61.49 1.06 62.13 1.97Q62.76 2.88 63.11 4.10Q63.45 5.32 63.45 6.71L63.45 6.71Q63.45 8.54 63.06 9.91Q62.68 11.27 62.01 12.18Q61.35 13.09 60.47 13.54Q59.60 14 58.62 14L58.62 14Q57.58 14 56.82 13.70Q56.06 13.40 55.52 12.89Q54.98 12.38 54.64 11.70Q54.29 11.03 54.10 10.30Q53.90 9.56 53.83 8.80Q53.76 8.04 53.76 7.34ZM66.07 9.66L66.07 9.66Q66.07 10.08 66.23 10.59Q66.39 11.10 66.77 11.54Q67.14 11.98 67.75 12.29Q68.36 12.59 69.24 12.59L69.24 12.59Q69.71 12.59 69.97 12.46Q70.24 12.33 70.36 12.14Q70.49 11.96 70.53 11.75Q70.56 11.54 70.56 11.35L70.56 11.35Q70.56 10.75 70.33 10.16Q70.10 9.58 69.69 9.11Q69.29 8.65 68.73 8.37Q68.18 8.09 67.54 8.09L67.54 8.09Q67.12 8.09 66.84 8.25Q66.56 8.41 66.38 8.66Q66.21 8.90 66.14 9.18Q66.07 9.45 66.07 9.66ZM69.15 7L69.15 7Q69.57 7 70.05 7.18Q70.53 7.36 70.95 7.73Q71.36 8.09 71.62 8.66Q71.89 9.23 71.89 9.98L71.89 9.98Q71.89 10.42 71.69 10.88Q71.48 11.34 71.16 11.79Q70.83 12.24 70.40 12.63Q69.97 13.03 69.52 13.34Q69.06 13.64 68.61 13.82Q68.15 14 67.77 14L67.77 14Q67.20 14 66.68 13.76Q66.15 13.52 65.74 13.12Q65.34 12.71 65.09 12.19Q64.85 11.66 64.85 11.07L64.85 11.07Q64.85 10.28 65.28 9.54Q65.72 8.81 66.36 8.24Q67.00 7.67 67.75 7.34Q68.50 7 69.15 7ZM71.09 3.33L71.09 3.33Q71.09 2.83 71.49 2.33Q71.89 1.83 72.51 1.39Q73.14 0.95 73.89 0.60Q74.65 0.25 75.35 0.04L75.35 0.04Q74.82 0.21 74.33 0.48Q73.84 0.74 73.46 1.06Q73.08 1.37 72.85 1.71Q72.62 2.06 72.62 2.38L72.62 2.38Q72.62 2.76 72.86 3.18Q73.11 3.60 73.49 4.03Q73.88 4.45 74.36 4.86Q74.84 5.26 75.33 5.61Q75.81 5.95 76.24 6.22Q76.66 6.50 76.96 6.64L76.96 6.64Q77.24 6.78 77.60 6.92Q77.97 7.07 78.35 7.26Q78.74 7.45 79.11 7.69Q79.49 7.94 79.79 8.27Q80.08 8.61 80.26 9.04Q80.44 9.48 80.44 10.05L80.44 10.05Q80.44 10.51 80.30 10.91Q80.16 11.30 79.93 11.63Q79.69 11.97 79.39 12.26Q79.09 12.54 78.75 12.81L78.75 12.81Q78.08 13.34 77.46 13.68Q76.85 14.01 76.19 14.01L76.19 14.01Q75.64 14.01 75.18 13.79Q74.72 13.57 74.40 13.21Q74.07 12.85 73.89 12.41Q73.71 11.97 73.71 11.54L73.71 11.54Q73.71 10.92 73.85 10.51Q73.99 10.09 74.22 9.81Q74.45 9.53 74.75 9.34Q75.04 9.14 75.35 8.96L75.35 8.96Q75.63 8.74 75.92 8.57Q76.20 8.40 76.54 8.29L76.54 8.29Q76.03 8.04 75.56 7.78Q75.08 7.52 74.72 7.24L74.72 7.24Q74.45 7.06 74.08 6.80Q73.71 6.55 73.31 6.25Q72.91 5.95 72.51 5.60Q72.11 5.25 71.80 4.88Q71.48 4.51 71.29 4.12Q71.09 3.72 71.09 3.33ZM78.88 10.91L78.88 10.91Q78.88 10.47 78.70 10.12Q78.53 9.76 78.23 9.46Q77.94 9.16 77.55 8.90Q77.15 8.65 76.72 8.43L76.72 8.43Q76.47 8.47 76.20 8.62Q75.92 8.76 75.71 9.00Q75.49 9.24 75.34 9.55Q75.19 9.87 75.19 10.25L75.19 10.25Q75.19 10.70 75.36 11.12Q75.53 11.55 75.85 11.89Q76.17 12.22 76.64 12.43Q77.11 12.63 77.73 12.63L77.73 12.63Q78.20 12.63 78.45 12.51Q78.69 12.39 78.79 12.17Q78.88 11.94 78.88 11.62Q78.88 11.30 78.88 10.91ZM86.76 12.49L86.76 12.49Q87.16 12.49 87.52 12.38Q87.88 12.28 88.14 12.14L88.14 12.14Q88.45 11.98 88.72 11.79L88.72 11.79Q88.34 12.42 87.81 12.91L87.81 12.91Q87.36 13.33 86.68 13.67Q86.00 14.01 85.11 14.01L85.11 14.01Q84.46 14.01 83.87 13.79Q83.29 13.57 82.83 13.15Q82.38 12.73 82.11 12.12Q81.84 11.51 81.84 10.75L81.84 10.75Q81.84 10.07 82.06 9.54Q82.28 9.02 82.63 8.62Q82.98 8.23 83.41 7.97Q83.85 7.71 84.27 7.55L84.27 7.55Q85.61 7 86.10 7L86.10 7Q86.62 7 87.00 7.17Q87.39 7.35 87.67 7.56L87.67 7.56Q87.98 7.81 88.21 8.12L88.21 8.12L83.59 9.98Q83.69 10.57 83.87 11.03Q84.06 11.49 84.41 11.82Q84.76 12.14 85.32 12.31Q85.88 12.49 86.76 12.49ZM84.49 7.81L84.49 7.81Q84.29 7.81 84.11 7.92Q83.93 8.02 83.78 8.19Q83.64 8.36 83.56 8.57Q83.48 8.78 83.50 8.99L83.50 8.99Q83.50 9.21 83.50 9.42Q83.51 9.63 83.55 9.84L83.55 9.84L85.90 8.76Q85.76 8.50 85.55 8.29L85.55 8.29Q85.37 8.11 85.11 7.96Q84.84 7.81 84.49 7.81ZM97.52 10.01L97.52 10.01Q97.52 11.00 97.20 11.75Q96.87 12.50 96.47 13.01L96.47 13.01Q96.01 13.59 95.42 14.01L95.42 14.01Q95.65 13.66 95.83 13.24L95.83 13.24Q95.98 12.88 96.11 12.42Q96.24 11.96 96.24 11.44L96.24 11.44Q96.24 10.81 95.98 10.22Q95.73 9.63 95.31 9.18Q94.89 8.72 94.34 8.44Q93.79 8.16 93.18 8.16L93.18 8.16Q92.89 8.16 92.61 8.23Q92.33 8.30 92.15 8.48L92.15 8.48Q92.15 8.78 92.13 9.27Q92.11 9.77 92.11 10.42Q92.11 11.06 92.14 11.82Q92.18 12.57 92.30 13.38L92.30 13.38Q91.81 13.38 91.33 13.58Q90.85 13.78 90.55 14.01L90.55 14.01Q90.57 13.75 90.59 13.24Q90.62 12.73 90.64 12.10Q90.65 11.48 90.64 10.82Q90.64 10.16 90.58 9.61Q90.52 9.06 90.42 8.68Q90.31 8.30 90.13 8.25L90.13 8.25Q89.89 8.15 89.66 8.15L89.66 8.15Q89.53 8.15 89.42 8.16L89.42 8.16Q89.89 7.85 90.33 7.60L90.33 7.60Q90.69 7.39 91.07 7.22Q91.45 7.04 91.66 7.04L91.66 7.04Q91.84 7.04 91.94 7.07Q92.04 7.10 92.09 7.21Q92.13 7.32 92.14 7.55Q92.15 7.77 92.15 8.16L92.15 8.16Q92.75 7.62 93.43 7.33Q94.11 7.04 94.71 7.04L94.71 7.04Q95.34 7.04 95.86 7.29Q96.38 7.55 96.75 7.96Q97.12 8.37 97.32 8.90Q97.52 9.44 97.52 10.01ZM105.10 9.52L105.10 9.52Q105.21 9.79 105.42 10.30Q105.63 10.82 105.86 11.35Q106.09 11.89 106.32 12.29Q106.54 12.70 106.69 12.73L106.69 12.73Q106.27 12.96 105.82 13.30Q105.36 13.64 105.03 14L105.03 14Q104.96 13.69 104.78 13.14Q104.59 12.59 104.29 11.93L104.29 11.93Q104.02 12.19 103.61 12.55Q103.21 12.91 102.75 13.23Q102.28 13.55 101.79 13.78Q101.29 14 100.84 14L100.84 14Q100.52 14 100.18 13.91Q99.83 13.82 99.55 13.64Q99.27 13.47 99.10 13.22Q98.92 12.96 98.92 12.64L98.92 12.64Q98.92 12.25 99.33 11.80Q99.74 11.35 100.34 10.91Q100.94 10.47 101.64 10.05Q102.34 9.63 102.93 9.27L102.93 9.27Q102.49 8.72 102.11 8.48Q101.72 8.23 101.26 8.23L101.26 8.23Q101.07 8.23 100.75 8.34Q100.44 8.46 100.14 8.60L100.14 8.60Q99.78 8.75 99.41 8.95L99.41 8.95Q100.20 8.41 100.93 7.98L100.93 7.98Q101.23 7.80 101.56 7.63Q101.88 7.46 102.18 7.32Q102.48 7.18 102.74 7.10Q103.00 7.01 103.18 7.01L103.18 7.01Q103.53 7.01 103.83 7.31Q104.13 7.62 104.38 8.03Q104.62 8.44 104.80 8.86Q104.97 9.28 105.10 9.52ZM102.35 12.64L102.35 12.64Q102.69 12.64 103.00 12.54Q103.31 12.45 103.54 12.26Q103.77 12.08 103.91 11.83Q104.05 11.58 104.05 11.28L104.05 11.28Q103.94 11.10 103.81 10.88Q103.68 10.67 103.57 10.47L103.57 10.47Q103.46 10.22 103.34 9.99Q103.22 9.76 103.10 9.60L103.10 9.60Q102.79 9.72 102.35 9.92Q101.91 10.12 101.50 10.39Q101.09 10.67 100.81 10.99Q100.52 11.31 100.52 11.66L100.52 11.66Q100.52 11.86 100.67 12.03Q100.81 12.21 101.06 12.34Q101.30 12.47 101.64 12.56Q101.98 12.64 102.35 12.64Z"></path></g><!----><!----></svg>